<svg width="40" height="40" viewBox="0 0 40 40" fill="none" xmlns="http://www.w3.org/2000/svg">
<g clip-path="url(#clip0_80_96)">
<path d="M20 14.6855C17.068 14.6855 14.6866 17.0629 14.6866 20.0002C14.6866 22.9362 17.0693 25.3162 20 25.3162C22.932 25.3162 25.316 22.9362 25.316 20.0002C25.316 17.0629 22.932 14.6855 20 14.6855ZM20 23.4749C18.0746 23.4749 16.524 21.9189 16.524 20.0002C16.524 18.0815 18.0746 16.5255 20 16.5255C21.9053 16.5255 23.476 18.0815 23.476 20.0002C23.476 21.9189 21.9253 23.4749 20 23.4749Z" fill="#DBC09E"/>
<path d="M25.8467 12.7412C25.1627 12.7412 24.62 13.2852 24.62 13.9692C24.62 14.6519 25.1627 15.1945 25.8467 15.1945C26.5307 15.1945 27.0747 14.6519 27.0747 13.9692C27.0747 13.2852 26.5293 12.7412 25.8467 12.7412Z" fill="#DBC09E"/>
<path d="M20.0026 0.200195C9.06394 0.200195 0.198608 9.06286 0.198608 20.0002C0.198608 30.9349 9.06394 39.8002 20.0026 39.8002C30.9346 39.8002 39.8026 30.9362 39.8026 20.0002C39.8026 9.06286 30.9346 0.200195 20.0026 0.200195ZM30.2213 24.3535C30.2213 27.5842 27.5826 30.2215 24.3333 30.2215H15.6666C12.4159 30.2215 9.77728 27.5829 9.77728 24.3735V15.6455C9.77728 12.4162 12.4146 9.77886 15.6666 9.77886H24.3333C27.5839 9.77886 30.2213 12.4162 30.2213 15.6455V24.3535Z" fill="#DBC09E"/>
</g>
<defs>
<clipPath id="clip0_80_96">
<rect width="40" height="40" fill="white"/>
</clipPath>
</defs>
</svg>
