<svg width="40" height="40" viewBox="0 0 40 40" fill="none" xmlns="http://www.w3.org/2000/svg">
<g clip-path="url(#clip0_80_100)">
<path d="M39.8009 20.0002C39.8009 30.9344 30.9359 39.8002 20.0026 39.8002C9.06422 39.8002 0.199219 30.9344 0.199219 20.0002C0.199219 9.06353 9.06422 0.200195 20.0026 0.200195C30.9359 0.200195 39.8009 9.06353 39.8009 20.0002ZM16.6942 32.3752H21.8334V20.0085H25.3026L25.7517 15.6402H21.8334V13.071C21.8334 12.1077 22.4742 11.8819 22.9234 11.8819H25.6884V7.6402L21.8817 7.6252C17.6551 7.6252 16.6942 10.7885 16.6942 12.8119V15.6402H14.2501V20.0085H16.6942V32.3752Z" fill="#DBC09E"/>
</g>
<defs>
<clipPath id="clip0_80_100">
<rect width="40" height="40" fill="white"/>
</clipPath>
</defs>
</svg>
