<svg width="128" height="118" viewBox="0 0 128 118" fill="none" xmlns="http://www.w3.org/2000/svg">
<path d="M127.202 115.457C127.455 115.346 127.569 115.051 127.457 114.798L125.64 110.682C125.528 110.429 125.233 110.315 124.98 110.426C124.728 110.538 124.613 110.833 124.725 111.085L126.341 114.745L122.682 116.36C122.429 116.472 122.315 116.767 122.426 117.02C122.538 117.272 122.833 117.387 123.085 117.275L127.202 115.457ZM92.0902 101.477L92.2708 101.011L92.0902 101.477ZM1.59364 4.1041C1.68777 4.3637 1.97452 4.49785 2.23413 4.40372C2.49373 4.30959 2.62788 4.02284 2.53375 3.76323L1.59364 4.1041ZM4.66114 9.63056C4.56701 9.37096 4.28025 9.23681 4.02065 9.33094C3.76104 9.42507 3.6269 9.71182 3.72103 9.97143L4.66114 9.63056ZM6.69823 17.9038C6.80151 18.1598 7.09285 18.2837 7.34895 18.1804C7.60505 18.0772 7.72893 17.7858 7.62564 17.5297L6.69823 17.9038ZM11.9489 27.2394C11.8277 26.9912 11.5283 26.8884 11.2802 27.0096C11.0321 27.1308 10.9292 27.4302 11.0504 27.6783L11.9489 27.2394ZM16.0872 37.1203C16.2258 37.3591 16.5318 37.4405 16.7706 37.3019C17.0095 37.1633 17.0908 36.8574 16.9522 36.6185L16.0872 37.1203ZM22.6093 45.6174C22.4541 45.389 22.1431 45.3297 21.9147 45.4848C21.6863 45.64 21.627 45.951 21.7821 46.1794L22.6093 45.6174ZM28.1065 54.8107C28.2775 55.0275 28.5919 55.0647 28.8087 54.8936C29.0255 54.7226 29.0626 54.4082 28.8916 54.1914L28.1065 54.8107ZM35.7675 62.2978C35.5815 62.0937 35.2652 62.079 35.0611 62.265C34.857 62.451 34.8423 62.7672 35.0283 62.9713L35.7675 62.2978ZM42.5121 70.6195C42.7121 70.8099 43.0286 70.802 43.219 70.602C43.4094 70.402 43.4016 70.0855 43.2015 69.8951L42.5121 70.6195ZM51.1566 76.9455C50.9436 76.7698 50.6285 76.8001 50.4528 77.0131C50.2771 77.2261 50.3074 77.5413 50.5204 77.717L51.1566 76.9455ZM59.0123 84.2273C59.2373 84.3874 59.5495 84.3348 59.7096 84.1098C59.8697 83.8849 59.8171 83.5727 59.5921 83.4126L59.0123 84.2273ZM68.466 89.2637C68.2302 89.12 67.9226 89.1947 67.7789 89.4305C67.6351 89.6663 67.7098 89.9739 67.9456 90.1177L68.466 89.2637ZM77.2759 95.3584C77.5213 95.4849 77.8229 95.3886 77.9495 95.1432C78.076 94.8978 77.9797 94.5962 77.7343 94.4696L77.2759 95.3584ZM87.3477 99.0028C87.0939 98.894 86.8 99.0115 86.6912 99.2653C86.5823 99.5191 86.6999 99.8131 86.9537 99.9219L87.3477 99.0028ZM96.2733 103.634C96.5308 103.734 96.8204 103.606 96.9201 103.348C97.0199 103.091 96.892 102.801 96.6345 102.701L96.2733 103.634ZM105.362 106.082C105.104 105.982 104.815 106.11 104.715 106.368C104.615 106.625 104.743 106.915 105.001 107.015L105.362 106.082ZM113.728 110.395C113.986 110.495 114.275 110.367 114.375 110.11C114.475 109.852 114.347 109.562 114.089 109.463L113.728 110.395ZM122.817 112.843C122.559 112.744 122.27 112.872 122.17 113.129C122.07 113.387 122.198 113.676 122.456 113.776L122.817 112.843ZM0.529944 1.17043L1.59364 4.1041L2.53375 3.76323L1.47006 0.829566L0.529944 1.17043ZM3.72103 9.97143L4.78472 12.9051L5.72483 12.5642L4.66114 9.63056L3.72103 9.97143ZM4.78472 12.9051C5.39408 14.5857 6.03211 16.2521 6.69823 17.9038L7.62564 17.5297C6.96395 15.8891 6.33015 14.2337 5.72483 12.5642L4.78472 12.9051ZM11.0504 27.6783C12.6208 30.8925 14.3013 34.0414 16.0872 37.1203L16.9522 36.6185C15.1782 33.5601 13.5088 30.4321 11.9489 27.2394L11.0504 27.6783ZM21.7821 46.1794C23.7896 49.1341 25.8994 52.0129 28.1065 54.8107L28.8916 54.1914C26.6991 51.4121 24.6035 48.5525 22.6093 45.6174L21.7821 46.1794ZM35.0283 62.9713C37.4315 65.6085 39.9277 68.1596 42.5121 70.6195L43.2015 69.8951C40.6343 67.4516 38.1547 64.9175 35.7675 62.2978L35.0283 62.9713ZM50.5204 77.717C53.2697 79.9843 56.1019 82.1561 59.0123 84.2273L59.5921 83.4126C56.7011 81.3551 53.8877 79.1978 51.1566 76.9455L50.5204 77.717ZM67.9456 90.1177C70.9849 91.9701 74.0966 93.7186 77.2759 95.3584L77.7343 94.4696C74.5761 92.8407 71.4852 91.1038 68.466 89.2637L67.9456 90.1177ZM86.9537 99.9219C88.5904 100.624 90.2426 101.298 91.9096 101.944L92.2708 101.011C90.6148 100.37 88.9736 99.7 87.3477 99.0028L86.9537 99.9219ZM91.9096 101.944L96.2733 103.634L96.6345 102.701L92.2708 101.011L91.9096 101.944ZM105.001 107.015L113.728 110.395L114.089 109.463L105.362 106.082L105.001 107.015ZM122.456 113.776L126.819 115.466L127.181 114.534L122.817 112.843L122.456 113.776Z" fill="#DFB778"/>
</svg>
