<svg width="189" height="210" viewBox="0 0 189 210" fill="none" xmlns="http://www.w3.org/2000/svg">
<path d="M0 0H189V115.5C189 167.691 146.691 210 94.5 210C42.3091 210 0 167.691 0 115.5V0Z" fill="#2C2F36"/>
<path fill-rule="evenodd" clip-rule="evenodd" d="M67.5818 83.1132H121.513V28.0485H67.5818V83.1132ZM65.5755 85.1618H123.52V26H65.5755V85.1618ZM67.6187 55.5809C67.6187 70.7658 79.6755 83.0755 94.5472 83.0755C109.42 83.0755 121.476 70.7658 121.476 55.5809C121.476 40.3957 109.42 28.0861 94.5472 28.0861C79.6755 28.0861 67.6187 40.3957 67.6187 55.5809ZM117.765 59.9849C118.023 58.557 118.158 57.085 118.158 55.5809C118.158 54.0767 118.023 52.6048 117.766 51.1768L117.765 59.9849ZM90.2346 79.2869C91.6329 79.5507 93.0744 79.6883 94.5472 79.6883C96.0206 79.6883 97.4621 79.5507 98.8611 79.2869H90.2346ZM71.3295 51.1769C71.0712 52.6048 70.9362 54.0767 70.9362 55.5809C70.9362 57.0976 71.0733 58.5816 71.3357 60.0207L71.3295 51.1769ZM98.8603 31.8746C97.4621 31.611 96.0206 31.4733 94.5472 31.4733C93.0742 31.4733 91.6326 31.611 90.2342 31.8746L98.8603 31.8746ZM113.589 36.1389L121.513 28.0483L113.589 36.1389ZM112.339 34.9434L116.043 28.0861L112.339 34.9434ZM110.823 33.6753L111.518 28.0483L110.823 33.6753ZM109.103 32.4448L107.905 28.0861L109.103 32.4448ZM114.759 37.415L121.476 33.6325L114.759 37.415ZM116.002 38.9627L121.513 38.2527L116.002 38.9627ZM117.207 40.7192L121.476 41.9425L117.207 40.7192ZM75.5065 36.1392L67.5818 28.0483L75.5065 36.1392ZM76.7557 34.9434L73.0514 28.0861L76.7557 34.9434ZM78.2718 33.6753L77.5763 28.0483L78.2718 33.6753ZM79.9921 32.4448L81.19 28.0861L79.9921 32.4448ZM74.3352 37.415L67.6191 33.6325L74.3352 37.415ZM73.093 38.9627L67.5818 38.2527L73.093 38.9627ZM71.888 40.7192L67.6191 41.9425L71.888 40.7192ZM113.589 75.0227L121.513 83.1132L113.589 75.0227ZM112.339 76.2181L116.043 83.0755L112.339 76.2181ZM110.823 77.4861L111.518 83.1132L110.823 77.4861ZM109.103 78.7166L107.905 83.0755L109.103 78.7166ZM114.759 73.7464L121.476 77.5289L114.759 73.7464ZM116.002 72.1988L121.513 72.9086L116.002 72.1988ZM117.207 70.4424L121.476 69.2189L117.207 70.4424ZM75.5061 75.0225L67.5818 83.1132L75.5061 75.0225ZM76.7557 76.2181L73.0514 83.0755L76.7557 76.2181ZM78.2718 77.4861L77.5763 83.1132L78.2718 77.4861ZM79.9921 78.7166L81.19 83.0755L79.9921 78.7166ZM74.3352 73.7464L67.6191 77.5289L74.3352 73.7464ZM73.093 72.1988L67.5818 72.9086L73.093 72.1988ZM71.888 70.4424L67.6191 69.2189L71.888 70.4424Z" stroke="#DFB778"/>
<path fill-rule="evenodd" clip-rule="evenodd" d="M86.6262 41.9148H102.448V46.4284H101.251C101.251 46.4284 101.251 44.6976 99.6555 44.6298H96.3317V49.4488H99.6223C101.251 49.3809 101.251 47.6841 101.251 47.6841H102.448V53.9624H101.251C101.251 53.9624 101.251 52.1638 99.5226 52.1638H96.3317V66.2137C96.3317 67.9445 98.0601 67.9445 98.0601 67.9445V69.1662H86.6262V67.9445C86.6262 67.9445 88.0886 67.9445 88.3546 66.6209V44.4601C88.0886 43.1365 86.6262 43.1365 86.6262 43.1365V41.9148ZM93.6394 44.5958H91.0136V66.4852H93.6394V44.5958Z" fill="#DFB778"/>
<path fill-rule="evenodd" clip-rule="evenodd" d="M35.674 138.881V130.638C35.674 127.435 36.9081 125.125 39.3763 123.865C41.3303 122.867 43.3358 122.815 43.3358 122.815V120.085C43.2329 120.085 40.7647 120.085 38.2451 121.345C37.4223 121.817 36.4967 122.395 35.674 123.235V104.911H45.1355V102.181H33.0001V138.881H35.674ZM51.3061 138.881V136.465C54.34 136.045 57.3738 134.785 59.4307 132.37V138.881H62.1046V102.181H59.4307V124.18C59.4307 131.583 53.9286 133.315 51.3061 133.683V102.181H48.6322V138.881H51.3061ZM68.3266 138.881H65.6527V102.181H70.7434C74.4457 102.181 77.2739 103.966 78.508 107.116C80.4106 112.157 77.9938 119.297 72.646 124.862L79.3308 137.568L76.9654 138.881L70.5891 126.805L68.3266 128.958V138.881ZM68.3266 104.911V125.23L69.8178 123.812C75.6798 118.247 77.3768 111.737 75.9884 108.114C75.1656 106.014 73.3659 104.911 70.7434 104.911H68.3266ZM95.2714 115.779C91.2091 114.152 88.6895 112.997 88.6895 110.057C88.6895 107.537 89.615 104.491 94.1401 104.491C96.814 104.491 99.6422 105.699 99.6422 108.324H102.316C102.316 103.966 98.2024 101.709 94.1401 101.709C88.1238 101.709 85.9641 106.014 85.9641 110.057C85.9641 114.992 90.2321 116.672 94.2944 118.352C98.8195 120.137 103.036 121.817 103.036 127.487C103.036 132.895 99.4365 136.57 94.1401 136.57C91.4662 136.57 85.2442 135.888 85.2442 129.273C85.2442 129.01 85.3471 123.655 90.7463 123.655C96.0427 123.655 96.2484 128.695 96.2484 129.273H98.9223C98.9223 124.39 95.5799 120.872 90.7463 120.872C85.9127 120.872 82.5703 124.39 82.5703 129.273C82.5703 136.675 88.5352 139.353 94.1401 139.353C95.9913 139.353 98.8195 138.776 101.133 137.148C103.242 135.678 105.761 132.843 105.761 127.487C105.761 119.927 99.9508 117.617 95.2714 115.779ZM108.95 102.181V138.881H111.623V131.53C111.623 124.18 117.125 122.447 119.748 122.027V138.881H122.422V102.181H119.748V119.245C116.611 119.665 113.732 120.925 111.623 123.392V102.181H108.95ZM138.105 138.881V136.15H128.644V130.638C128.644 127.435 129.878 125.125 132.346 123.865C134.3 122.867 136.306 122.815 136.306 122.815V120.085C136.203 120.085 133.735 120.085 131.215 121.345C130.392 121.817 129.467 122.395 128.644 123.235V104.911H138.105V102.181H125.97V138.881H138.105ZM147.464 104.911V138.881H150.138V104.911H156V102.181H141.602V104.911H147.464Z" fill="#DFB778"/>
<path fill-rule="evenodd" clip-rule="evenodd" d="M73.4944 181.27V147.301H70.8205V184H82.956V181.27H73.4944ZM86.4526 162.001C86.4526 154.914 90.7206 150.608 97.2511 149.716V147.301H99.925V184H97.2511V167.147C94.6286 167.567 89.1265 169.299 89.1265 176.65V184H86.4526V162.001ZM89.1265 162.001V168.512C90.6178 166.779 93.8573 164.627 96.2227 164.627C96.5827 164.627 96.8912 164.679 97.2511 164.837V152.498C94.6286 152.866 89.1265 154.599 89.1265 162.001ZM103.165 184V147.301H104.502C110.209 147.301 114.837 151.448 114.837 156.541C114.837 158.484 114.169 160.269 113.037 161.791C116.431 164.101 118.437 167.724 118.437 171.609C118.437 178.435 112.215 184 104.502 184H103.165ZM105.839 165.729V181.165C111.443 180.587 115.763 176.545 115.763 171.609C115.763 168.459 114.015 165.572 111.032 163.734C109.592 164.784 107.793 165.519 105.839 165.729ZM112.163 156.541C112.163 153.338 109.438 150.713 105.839 150.136V162.946C109.438 162.421 112.163 159.744 112.163 156.541Z" fill="#DFB778"/>
</svg>
