<svg width="21" height="22" viewBox="0 0 21 22" fill="none" xmlns="http://www.w3.org/2000/svg">
<path d="M17.3531 15C16.9041 15.0017 16.4601 15.0941 16.0477 15.2717C15.6352 15.4493 15.263 15.7083 14.9531 16.0333L6.82647 11.9667C7.02638 11.3605 7.02638 10.7062 6.82647 10.1L14.9665 5.96001C15.5495 6.57443 16.3402 6.95011 17.1848 7.01405C18.0294 7.07798 18.8676 6.82559 19.5365 6.30594C20.2054 5.78628 20.6572 5.03649 20.8041 4.20229C20.9509 3.36809 20.7824 2.50909 20.3312 1.79223C19.88 1.07538 19.1784 0.551891 18.3627 0.323519C17.5471 0.0951472 16.6756 0.178206 15.9178 0.556551C15.16 0.934897 14.5699 1.5815 14.2622 2.37068C13.9546 3.15986 13.9513 4.03524 14.2531 4.82668L6.19314 8.92668C5.75783 8.39431 5.16853 8.0096 4.50601 7.82529C3.84349 7.64099 3.14018 7.6661 2.49249 7.89719C1.8448 8.12828 1.28444 8.55403 0.888212 9.11609C0.491987 9.67815 0.279297 10.349 0.279297 11.0367C0.279297 11.7244 0.491987 12.3952 0.888212 12.9573C1.28444 13.5193 1.8448 13.9451 2.49249 14.1762C3.14018 14.4073 3.84349 14.4324 4.50601 14.2481C5.16853 14.0638 5.75783 13.679 6.19314 13.1467L14.2331 17.1933C14.0973 17.5581 14.0273 17.9441 14.0265 18.3333C14.0265 18.9926 14.222 19.6371 14.5882 20.1852C14.9545 20.7334 15.4751 21.1607 16.0842 21.4129C16.6933 21.6652 17.3635 21.7312 18.0101 21.6026C18.6567 21.474 19.2507 21.1565 19.7168 20.6904C20.183 20.2242 20.5005 19.6302 20.6291 18.9836C20.7577 18.337 20.6917 17.6668 20.4394 17.0577C20.1871 16.4486 19.7599 15.9281 19.2117 15.5618C18.6635 15.1955 18.0191 15 17.3598 15H17.3531Z" fill="#454850"/>
</svg>
