<svg width="90" height="90" viewBox="0 0 90 90" fill="none" xmlns="http://www.w3.org/2000/svg">
<path d="M33.7556 24.1312L33.7613 19.6762C33.7642 16.6945 34.9508 13.8359 37.0603 11.7286C39.1697 9.62122 42.0295 8.4375 45.0113 8.4375C51.21 8.4375 56.2331 13.4606 56.2331 19.6594V24.12C65.2921 26.8198 73.0781 32.6871 78.1702 40.651C83.2622 48.6149 85.3208 58.1443 83.97 67.5H6.02438C4.67594 58.1476 6.73426 48.622 11.8239 40.6608C16.9135 32.6995 24.6953 26.833 33.75 24.1312H33.7556ZM8.4375 73.125H81.5625C82.3084 73.125 83.0238 73.4213 83.5512 73.9488C84.0787 74.4762 84.375 75.1916 84.375 75.9375C84.375 76.6834 84.0787 77.3988 83.5512 77.9262C83.0238 78.4537 82.3084 78.75 81.5625 78.75H8.4375C7.69158 78.75 6.97621 78.4537 6.44877 77.9262C5.92132 77.3988 5.625 76.6834 5.625 75.9375C5.625 75.1916 5.92132 74.4762 6.44877 73.9488C6.97621 73.4213 7.69158 73.125 8.4375 73.125ZM11.25 61.875H78.75C78.75 57.4429 77.877 53.0542 76.1809 48.9594C74.4848 44.8647 71.9988 41.1441 68.8649 38.0101C65.7309 34.8762 62.0103 32.3902 57.9156 30.6941C53.8208 28.998 49.4321 28.125 45 28.125C40.5679 28.125 36.1792 28.998 32.0844 30.6941C27.9897 32.3902 24.2691 34.8762 21.1352 38.0101C18.0012 41.1441 15.5152 44.8647 13.8191 48.9594C12.123 53.0542 11.25 57.4429 11.25 61.875ZM50.6081 22.5V19.6594C50.6081 18.175 50.0185 16.7514 48.9688 15.7018C47.9192 14.6522 46.4956 14.0625 45.0113 14.0625C43.5204 14.0625 42.0905 14.6544 41.0358 15.708C39.981 16.7617 39.3877 18.191 39.3863 19.6819V22.5H50.6081Z" fill="#C79B77"/>
</svg>
