<svg width="90" height="90" viewBox="0 0 90 90" fill="none" xmlns="http://www.w3.org/2000/svg">
<g clip-path="url(#clip0_109_27)">
<path d="M30.9375 16.875V5.625C30.9375 4.87908 31.2338 4.16371 31.7613 3.63626C32.2887 3.10882 33.0041 2.8125 33.75 2.8125C34.4959 2.8125 35.2113 3.10882 35.7387 3.63626C36.2662 4.16371 36.5625 4.87908 36.5625 5.625V16.875C36.5625 17.6209 36.2662 18.3363 35.7387 18.8637C35.2113 19.3912 34.4959 19.6875 33.75 19.6875C33.0041 19.6875 32.2887 19.3912 31.7613 18.8637C31.2338 18.3363 30.9375 17.6209 30.9375 16.875ZM45 19.6875C45.7459 19.6875 46.4613 19.3912 46.9888 18.8637C47.5162 18.3363 47.8125 17.6209 47.8125 16.875V5.625C47.8125 4.87908 47.5162 4.16371 46.9888 3.63626C46.4613 3.10882 45.7459 2.8125 45 2.8125C44.2541 2.8125 43.5387 3.10882 43.0113 3.63626C42.4838 4.16371 42.1875 4.87908 42.1875 5.625V16.875C42.1875 17.6209 42.4838 18.3363 43.0113 18.8637C43.5387 19.3912 44.2541 19.6875 45 19.6875ZM56.25 19.6875C56.9959 19.6875 57.7113 19.3912 58.2388 18.8637C58.7662 18.3363 59.0625 17.6209 59.0625 16.875V5.625C59.0625 4.87908 58.7662 4.16371 58.2388 3.63626C57.7113 3.10882 56.9959 2.8125 56.25 2.8125C55.5041 2.8125 54.7887 3.10882 54.2613 3.63626C53.7338 4.16371 53.4375 4.87908 53.4375 5.625V16.875C53.4375 17.6209 53.7338 18.3363 54.2613 18.8637C54.7887 19.3912 55.5041 19.6875 56.25 19.6875ZM88.875 36L78.75 43.5938V64.6875C78.7407 67.6683 77.5525 70.5244 75.4447 72.6322C73.3369 74.74 70.4808 75.9282 67.5 75.9375H22.5C19.5192 75.9282 16.6631 74.74 14.5553 72.6322C12.4475 70.5244 11.2593 67.6683 11.25 64.6875V43.5938L1.12501 36C0.528274 35.5524 0.133768 34.8862 0.0282785 34.1477C-0.0772107 33.4093 0.114959 32.6592 0.562512 32.0625C1.01006 31.4658 1.67634 31.0713 2.41476 30.9658C3.15319 30.8603 3.90327 31.0524 4.50001 31.5L11.25 36.5625V30.9375C11.25 29.4457 11.8426 28.0149 12.8975 26.96C13.9524 25.9051 15.3832 25.3125 16.875 25.3125H73.125C74.6169 25.3125 76.0476 25.9051 77.1025 26.96C78.1574 28.0149 78.75 29.4457 78.75 30.9375V36.5625L85.5 31.5C86.0967 31.0524 86.8468 30.8603 87.5853 30.9658C88.3237 31.0713 88.99 31.4658 89.4375 32.0625C89.8851 32.6592 90.0772 33.4093 89.9717 34.1477C89.8663 34.8862 89.4718 35.5524 88.875 36ZM73.125 30.9375H16.875V64.6875C16.875 66.1793 17.4676 67.6101 18.5225 68.665C19.5774 69.7199 21.0082 70.3125 22.5 70.3125H67.5C68.9919 70.3125 70.4226 69.7199 71.4775 68.665C72.5324 67.6101 73.125 66.1793 73.125 64.6875V30.9375Z" fill="#C79B77"/>
</g>
<defs>
<clipPath id="clip0_109_27">
<rect width="90" height="90" fill="white"/>
</clipPath>
</defs>
</svg>
