<svg width="90" height="90" viewBox="0 0 90 90" fill="none" xmlns="http://www.w3.org/2000/svg">
<path d="M11.25 45H45V50.625H11.25V45ZM5.625 30.9375H33.75V36.5625H5.625V30.9375Z" fill="#C79B77"/>
<path d="M84.1472 46.7044L75.7097 27.0169C75.4932 26.5108 75.1328 26.0796 74.6733 25.7766C74.2138 25.4736 73.6754 25.3122 73.125 25.3125H64.6875V19.6875C64.6875 18.9416 64.3912 18.2262 63.8638 17.6988C63.3363 17.1713 62.6209 16.875 61.875 16.875H16.875V22.5H59.0625V57.8138C57.781 58.5579 56.6594 59.5484 55.7625 60.7282C54.8656 61.9079 54.2112 63.2536 53.8369 64.6875H36.1632C35.4786 62.0363 33.8506 59.7257 31.5844 58.1889C29.3181 56.6521 26.5692 55.9946 23.8528 56.3397C21.1365 56.6847 18.6392 58.0085 16.8291 60.0631C15.019 62.1176 14.0204 64.7618 14.0204 67.5C14.0204 70.2382 15.019 72.8824 16.8291 74.9369C18.6392 76.9915 21.1365 78.3153 23.8528 78.6603C26.5692 79.0054 29.3181 78.3479 31.5844 76.8111C33.8506 75.2743 35.4786 72.9637 36.1632 70.3125H53.8369C54.4487 72.7263 55.8479 74.8672 57.8131 76.3964C59.7784 77.9257 62.1974 78.756 64.6875 78.756C67.1777 78.756 69.5967 77.9257 71.5619 76.3964C73.5271 74.8672 74.9263 72.7263 75.5381 70.3125H81.5625C82.3084 70.3125 83.0238 70.0162 83.5513 69.4887C84.0787 68.9613 84.375 68.2459 84.375 67.5V47.8125C84.3752 47.4315 84.2976 47.0544 84.1472 46.7044ZM25.3125 73.125C24.2 73.125 23.1125 72.7951 22.1874 72.177C21.2624 71.5589 20.5414 70.6804 20.1157 69.6526C19.69 68.6248 19.5786 67.4938 19.7956 66.4026C20.0127 65.3115 20.5484 64.3092 21.3351 63.5225C22.1217 62.7359 23.124 62.2001 24.2151 61.9831C25.3063 61.766 26.4373 61.8774 27.4651 62.3032C28.493 62.7289 29.3715 63.4499 29.9895 64.3749C30.6076 65.2999 30.9375 66.3875 30.9375 67.5C30.936 68.9914 30.3429 70.4213 29.2884 71.4758C28.2338 72.5304 26.8039 73.1235 25.3125 73.125ZM64.6875 30.9375H71.2688L77.2988 45H64.6875V30.9375ZM64.6875 73.125C63.575 73.125 62.4875 72.7951 61.5624 72.177C60.6374 71.5589 59.9165 70.6804 59.4907 69.6526C59.065 68.6248 58.9536 67.4938 59.1706 66.4026C59.3877 65.3115 59.9234 64.3092 60.71 63.5225C61.4967 62.7359 62.499 62.2001 63.5901 61.9831C64.6813 61.766 65.8123 61.8774 66.8401 62.3032C67.868 62.7289 68.7465 63.4499 69.3645 64.3749C69.9826 65.2999 70.3125 66.3875 70.3125 67.5C70.311 68.9914 69.7179 70.4213 68.6634 71.4758C67.6088 72.5304 66.1789 73.1235 64.6875 73.125ZM78.75 64.6875H75.5381C74.9186 62.2784 73.5172 60.143 71.5535 58.616C69.5898 57.0891 67.175 56.2569 64.6875 56.25V50.625H78.75V64.6875Z" fill="#C79B77"/>
</svg>
