<svg width="90" height="90" viewBox="0 0 90 90" fill="none" xmlns="http://www.w3.org/2000/svg">
<path d="M45 7.5C40.8275 7.4993 36.7528 8.76368 33.3137 11.1263C29.8745 13.4889 27.2325 16.8387 25.7363 20.7338C24.1807 20.2852 22.6038 19.9147 21.0113 19.6238C17.7361 19.0308 14.4134 18.7396 11.085 18.7538L10.44 18.7688L10.26 18.7763C9.55704 18.8043 8.88929 19.0914 8.38529 19.5823C7.88129 20.0731 7.57665 20.733 7.53 21.435L7.52625 21.51L7.51875 21.6938C7.49311 22.6737 7.49936 23.6542 7.5375 24.6338C7.6125 26.5575 7.8225 29.235 8.37375 32.2613C8.87625 35.0175 9.67875 38.13 10.9613 41.25H10.3125C9.56658 41.25 8.85121 41.5463 8.32376 42.0738C7.79632 42.6012 7.5 43.3166 7.5 44.0625V45C7.5 65.7113 24.2888 82.5 45 82.5C65.7113 82.5 82.5 65.7113 82.5 45V44.0625C82.5 43.3166 82.2037 42.6012 81.6762 42.0738C81.1488 41.5463 80.4334 41.25 79.6875 41.25H78.7388C78.8447 37.1114 77.5434 33.0592 75.0475 29.7562C72.5517 26.4531 69.009 24.0946 64.9988 23.0663C63.8715 18.6161 61.2924 14.669 57.6695 11.8496C54.0466 9.03026 49.5869 7.49963 44.9963 7.5H45ZM31.0238 22.65C32.1217 19.849 34.0363 17.4428 36.519 15.7437C39.0017 14.0446 41.9379 13.1312 44.9463 13.1219C47.9548 13.1126 50.8965 14.0079 53.3897 15.6916C55.8829 17.3753 57.8123 19.7696 58.9275 22.5638C55.7028 22.8348 52.6077 23.9564 49.958 25.8142C47.3083 27.672 45.1989 30.1995 43.845 33.1388C42.8336 31.6405 41.6822 30.2417 40.4063 28.9613C37.5975 26.1525 34.3313 24.1238 31.0238 22.65ZM73.125 40.7813C73.125 40.9388 73.1213 41.0963 73.1138 41.25H47.88L47.8125 41.0625V40.7813C47.8125 37.4246 49.1459 34.2054 51.5194 31.8319C53.8929 29.4584 57.1121 28.125 60.4688 28.125C63.8254 28.125 67.0446 29.4584 69.4181 31.8319C71.7916 34.2054 73.125 37.4246 73.125 40.7813ZM36.4275 32.94C38.8388 35.3475 40.5863 38.2463 41.8463 41.25H33.9713L27.3 34.575C27.0425 34.2987 26.732 34.077 26.387 33.9233C26.042 33.7696 25.6696 33.6869 25.292 33.6803C24.9143 33.6736 24.5392 33.7431 24.189 33.8845C23.8388 34.026 23.5207 34.2365 23.2536 34.5036C22.9865 34.7707 22.776 35.0888 22.6345 35.439C22.4931 35.7892 22.4236 36.1643 22.4303 36.542C22.4369 36.9196 22.5196 37.292 22.6733 37.637C22.827 37.982 23.0487 38.2925 23.325 38.55L26.025 41.25H17.1375C15.4875 37.965 14.4975 34.4513 13.9125 31.2488C13.5022 28.9917 13.2516 26.7085 13.1625 24.4163V24.4088H13.1663C14.8913 24.4725 17.295 24.6638 19.9988 25.1588C25.4738 26.16 31.8488 28.3463 36.435 32.94H36.4275ZM17.955 61.875H72.045C69.1822 66.4665 65.1969 70.2531 60.4651 72.8775C55.7333 75.5019 50.4109 76.8777 45 76.875C39.5891 76.8777 34.2667 75.5019 29.5349 72.8775C24.8031 70.2531 20.8178 66.4665 17.955 61.875ZM13.1775 46.875H76.8188C76.635 50.0826 75.9649 53.2437 74.8313 56.25H15.1688C14.0354 53.2437 13.3653 50.0826 13.1813 46.875H13.1775ZM10.1925 18.78H10.26H10.1925Z" fill="#C79B77"/>
</svg>
