<svg width="40" height="40" viewBox="0 0 40 40" fill="none" xmlns="http://www.w3.org/2000/svg">
<g clip-path="url(#clip0_80_93)">
<path d="M20 0C8.93333 0 0 8.93333 0 20C0 31.0667 8.93333 40 20 40C31.0667 40 40 31.0667 40 20C40 8.93333 31.0667 0 20 0ZM31.2667 9.26667L26.8 30.2667C26.7333 30.6667 26.2667 30.8667 25.8667 30.6667L19 26.0667L15.3333 29.5333C15 29.8 14.5333 29.6667 14.4 29.2667L12 21.8L5.66667 19.2C5.2 19 5.2 18.2 5.66667 18L30.4 8.6C30.8667 8.46667 31.3333 8.8 31.2667 9.26667Z" fill="#DBC09E"/>
<path d="M15.1334 27.0663L15.5334 23.1997L26.7334 12.333L13.2667 21.1997" fill="#DBC09E"/>
</g>
<defs>
<clipPath id="clip0_80_93">
<rect width="40" height="40" fill="white"/>
</clipPath>
</defs>
</svg>
