<svg width="97" height="64" viewBox="0 0 97 64" fill="none" xmlns="http://www.w3.org/2000/svg">
<path d="M18.3333 0C16.15 0 16.1333 3.36667 18.3333 3.33333H91.6667C92.62 3.33333 93.3333 4.04667 93.3333 5V48.3333C93.3333 50.5333 96.6667 50.5333 96.6667 48.3333V5C96.6667 2.26 94.4067 0 91.6667 0H18.3333ZM11.6667 6.66667C9.48667 6.66667 9.48667 10 11.6667 10H85C85.9533 10 86.6667 10.7133 86.6667 11.6667V55C86.6667 57.2167 90.0333 57.2 90 55V11.6667C90 8.92667 87.74 6.66667 85 6.66667H11.6667ZM5 13.3333C2.26 13.3333 0 15.5933 0 18.3333V58.3333C0 61.0733 2.26 63.3333 5 63.3333H78.3333C81.0733 63.3333 83.3333 61.0733 83.3333 58.3333V18.3333C83.3333 15.5933 81.0733 13.3333 78.3333 13.3333H5ZM5 16.6667H78.3333C79.2867 16.6667 80 17.38 80 18.3333V58.3333C80 59.2867 79.2867 60 78.3333 60H5C4.04667 60 3.33333 59.2867 3.33333 58.3333V18.3333C3.33333 17.38 4.04667 16.6667 5 16.6667ZM8.33333 20C7.41333 20 6.66667 20.7467 6.66667 21.6667V28.3333C6.66667 30.5733 10 30.52 10 28.3333V23.3333H15C17.24 23.3333 17.1867 20 15 20H8.33333ZM41.6667 20C31.56 20 23.3333 28.2267 23.3333 38.3333C23.3333 48.44 31.56 56.6667 41.6667 56.6667C51.7733 56.6667 60 48.44 60 38.3333C60 28.2267 51.7733 20 41.6667 20ZM68.3333 20C66.1467 20 66.0933 23.3333 68.3333 23.3333H73.3333V28.3333C73.3333 30.52 76.6667 30.5733 76.6667 28.3333V21.6667C76.6667 20.7467 75.92 20 75 20H68.3333ZM41.6667 23.3333C49.9667 23.3333 56.6667 30.0333 56.6667 38.3333C56.6667 46.6333 49.9667 53.3333 41.6667 53.3333C33.3667 53.3333 26.6667 46.6333 26.6667 38.3333C26.6667 30.0333 33.3667 23.3333 41.6667 23.3333ZM8.33333 46.6733C7.5 46.6667 6.66667 47.2133 6.66667 48.3333V55C6.66667 55.92 7.41333 56.6667 8.33333 56.6667H15C17.1867 56.6667 17.24 53.3333 15 53.3333H10V48.3333C10 47.24 9.16667 46.68 8.33333 46.6733ZM75 46.6733C74.1667 46.68 73.3333 47.24 73.3333 48.3333V53.3333H68.3333C66.0933 53.3333 66.1467 56.6667 68.3333 56.6667H75C75.92 56.6667 76.6667 55.92 76.6667 55V48.3333C76.6667 47.2133 75.8333 46.6667 75 46.6733Z" fill="#C79B77"/>
<path d="M37.8 45.333V31.053H42.36C44.2 31.053 45.54 31.4263 46.38 32.173C47.2333 32.9197 47.66 33.9463 47.66 35.253C47.66 36.0263 47.4867 36.753 47.14 37.433C46.7933 38.113 46.2133 38.6597 45.4 39.073C44.6 39.4863 43.5067 39.693 42.12 39.693H40.82V45.333H37.8ZM36.2 43.193V41.253H43.9V43.193H36.2ZM36.2 39.693V37.213H42.06V39.693H36.2ZM41.82 37.213C42.3933 37.213 42.8867 37.153 43.3 37.033C43.7133 36.8997 44.0333 36.693 44.26 36.413C44.4867 36.133 44.6 35.7797 44.6 35.353C44.6 34.7397 44.4067 34.2863 44.02 33.993C43.6333 33.6863 43.0267 33.533 42.2 33.533H40.82V37.213H41.82Z" fill="#C79B77"/>
</svg>
