<svg width="84" height="84" viewBox="0 0 84 84" fill="none" xmlns="http://www.w3.org/2000/svg">
<path d="M78.3746 18.0236C76.7506 16.3996 74.0625 16.3996 72.4384 18.0236L71.226 19.2332C69.6019 20.8572 69.6019 23.5452 71.226 25.1692L75.6305 29.5764C77.2602 31.2004 79.9427 31.2004 81.5723 29.5764L82.782 28.364C84.406 26.74 84.406 24.0576 82.782 22.428L78.3746 18.0236ZM76.3978 20.0032L80.8023 24.4076C81.3679 24.9732 81.3679 25.8216 80.8023 26.3872L79.5899 27.5996C79.0298 28.1652 78.1758 28.1652 77.6102 27.5996L73.2056 23.1952C72.64 22.6296 72.64 21.7812 73.2056 21.2156L74.4181 20.0032C74.9837 19.4376 75.8321 19.4376 76.3978 20.0032ZM66.8494 25.2112C66.0094 25.144 64.9846 25.3792 64.2229 26.1464L35.41 55.0088C34.8864 55.5408 34.3319 56.0896 34.0015 56.9464C33.6739 57.8032 33.6039 58.7384 33.6039 60.2V64.4C33.6039 65.814 34.808 67.2 36.404 67.2H40.6042C42.0714 67.2 43.0262 67.116 43.8803 66.7856C44.7371 66.4496 45.2887 65.898 45.7955 65.3912L74.6085 36.5232C75.9945 35.1344 75.8685 33.0064 74.6085 31.7464L69.0083 26.1464C68.4147 25.5584 67.6923 25.2784 66.8522 25.2112H66.8494ZM67.023 28.1232L72.6232 33.7232C72.7296 33.8296 72.836 34.3336 72.6232 34.5464L43.8103 63.4088C43.3062 63.9128 43.1578 64.0612 42.8666 64.176C42.5726 64.288 41.937 64.4 40.5986 64.4H36.4012V60.2C36.4012 58.856 36.5076 58.226 36.6168 57.946C36.7232 57.666 36.8688 57.5176 37.3924 56.994L66.2054 28.126C66.4574 27.874 66.897 28 67.023 28.126V28.1232ZM12.6004 30.8H49.0016C49.7773 30.8 50.4017 31.4244 50.4017 32.2C50.4017 32.9756 49.7773 33.6 49.0016 33.6H12.6004C11.8248 33.6 11.2004 32.9756 11.2004 32.2C11.2004 31.4244 11.8248 30.8 12.6004 30.8ZM12.6004 22.4H49.0016C49.7773 22.4 50.4017 23.0244 50.4017 23.8C50.4017 24.5756 49.7773 25.2 49.0016 25.2H12.6004C11.8248 25.2 11.2004 24.5756 11.2004 23.8C11.2004 23.0244 11.8248 22.4 12.6004 22.4ZM12.6004 14H49.0016C49.7773 14 50.4017 14.6244 50.4017 15.4C50.4017 16.1756 49.7773 16.8 49.0016 16.8H12.6004C11.8248 16.8 11.2004 16.1756 11.2004 15.4C11.2004 14.6244 11.8248 14 12.6004 14ZM4.20014 0C1.89846 0 0 1.8984 0 4.2V79.8C0 82.1016 1.89846 84 4.20014 84H57.4019C59.7036 84 61.6021 82.1016 61.6021 79.8V57.4C61.6021 55.5296 58.802 55.5856 58.802 57.4V79.8C58.802 80.6008 58.2027 81.2 57.4019 81.2H4.20014C3.39931 81.2 2.80009 80.6008 2.80009 79.8V4.2C2.80009 3.3992 3.39931 2.8 4.20014 2.8H57.4019C58.2027 2.8 58.802 3.3992 58.802 4.2V23.8C58.802 25.6816 61.6021 25.6144 61.6021 23.8V4.2C61.6021 1.8984 59.7036 0 57.4019 0H4.20014Z" fill="#C79B77"/>
</svg>
