<svg width="62" height="84" viewBox="0 0 62 84" fill="none" xmlns="http://www.w3.org/2000/svg">
<path d="M4.2 0C1.8984 0 0 1.8984 0 4.2V79.8C0 82.1016 1.8984 84 4.2 84H57.4C59.7016 84 61.6 82.1016 61.6 79.8V18.48C61.6 16.6096 58.8 16.6656 58.8 18.48V79.8C58.8 80.6008 58.2008 81.2 57.4 81.2H4.2C3.3992 81.2 2.8 80.6008 2.8 79.8V4.2C2.8 3.3992 3.3992 2.8 4.2 2.8H57.4C58.2008 2.8 58.8 3.3992 58.8 4.2V10.92C58.8 12.8016 61.6 12.7344 61.6 10.92V4.2C61.6 1.8984 59.7016 0 57.4 0H4.2Z" fill="#C79B77"/>
<rect x="10.4983" y="10.5002" width="41.16" height="28.56" rx="1.26" stroke="#C79B77" stroke-width="2.52"/>
<line x1="10.4983" y1="52.5003" x2="19.7383" y2="52.5003" stroke="#C79B77" stroke-width="2.52" stroke-linecap="round"/>
<line x1="36.5412" y1="52.5003" x2="51.6612" y2="52.5003" stroke="#C79B77" stroke-width="2.52" stroke-linecap="round"/>
</svg>
