<svg width="100" height="74" viewBox="0 0 100 74" fill="none" xmlns="http://www.w3.org/2000/svg">
<path d="M75 50C70.4167 50 66.6667 53.75 66.6667 58.3333C66.6667 62.9167 70.4167 66.6667 75 66.6667C76.9133 66.6667 78.5333 65.8467 80 64.6667C81.4667 65.8467 83.0867 66.6667 85 66.6667C89.5833 66.6667 93.3333 62.9167 93.3333 58.3333C93.3333 53.75 89.5833 50 85 50C83.0867 50 81.4667 50.8 80 51.9833C78.5333 50.8 76.9133 50.0033 75 50ZM75 53.3333C76.4333 53.3333 77.8 53.9533 78.75 55.0333C79.4167 55.7833 80.5833 55.7833 81.25 55.0333C82.2 53.9533 83.5633 53.3333 85 53.3333C87.78 53.3333 90 55.5533 90 58.3333C90 61.1133 87.78 63.3333 85 63.3333C83.5667 63.3333 82.2 62.7133 81.25 61.6333C80.5833 60.8833 79.4167 60.8833 78.75 61.6333C77.8 62.7133 76.4367 63.3333 75 63.3333C72.22 63.3333 70 61.1133 70 58.3333C70 55.5533 72.22 53.3333 75 53.3333ZM51.6667 56.6667H58.3333C59.2567 56.6667 60 57.41 60 58.3333C60 59.2567 59.2567 60 58.3333 60H51.6667C50.7433 60 50 59.2567 50 58.3333C50 57.41 50.7433 56.6667 51.6667 56.6667ZM38.3333 56.6667H45C45.9233 56.6667 46.6667 57.41 46.6667 58.3333C46.6667 59.2567 45.9233 60 45 60H38.3333C37.41 60 36.6667 59.2567 36.6667 58.3333C36.6667 57.41 37.41 56.6667 38.3333 56.6667ZM25 56.6667H31.6667C32.59 56.6667 33.3333 57.41 33.3333 58.3333C33.3333 59.2567 32.59 60 31.6667 60H25C24.0767 60 23.3333 59.2567 23.3333 58.3333C23.3333 57.41 24.0767 56.6667 25 56.6667ZM48.3333 40H88.3333C89.2567 40 90 40.7433 90 41.6667C90 42.59 89.2567 43.3333 88.3333 43.3333H48.3333C47.41 43.3333 46.6667 42.59 46.6667 41.6667C46.6667 40.7433 47.41 40 48.3333 40ZM65 30H88.3333C89.2567 30 90 30.7433 90 31.6667C90 32.59 89.2567 33.3333 88.3333 33.3333H65C64.0767 33.3333 63.3333 32.59 63.3333 31.6667C63.3333 30.7433 64.0767 30 65 30ZM48.3333 30H58.3333C59.2567 30 60 30.7433 60 31.6667C60 32.59 59.2567 33.3333 58.3333 33.3333H48.3333C47.41 33.3333 46.6667 32.59 46.6667 31.6667C46.6667 30.7433 47.41 30 48.3333 30ZM25 26.6667C24.08 26.6667 23.3333 27.4133 23.3333 28.3333V45C23.3333 45.92 24.08 46.6667 25 46.6667H38.3333C39.2533 46.6667 40 45.92 40 45V28.3333C40 27.4133 39.2533 26.6667 38.3333 26.6667H25ZM26.6667 30H36.6667V43.3333H26.6667V30ZM21.6667 20C18.9267 20 16.6667 22.26 16.6667 25V68.3333C16.6667 71.0733 18.9267 73.3333 21.6667 73.3333H95C97.74 73.3333 100 71.0733 100 68.3333V25C100 22.26 97.74 20 95 20H21.6667ZM21.6667 23.3333H95C95.9533 23.3333 96.6667 24.0467 96.6667 25V68.3333C96.6667 69.2867 95.9533 70 95 70H21.6667C20.7133 70 20 69.2867 20 68.3333V25C20 24.0467 20.7133 23.3333 21.6667 23.3333ZM5 0C2.26 0 0 2.26 0 5V48.3333C0 51.0733 2.26 53.3333 5 53.3333H11.6667C13.9067 53.3333 13.8433 50 11.6667 50H5C4.04667 50 3.33333 49.2867 3.33333 48.3333V26.6667H8.33333C9.25667 26.6667 10 25.9233 10 25C10 24.0767 9.25667 23.3333 8.33333 23.3333H3.33333V13.3333H83.3333V15C83.3333 17.24 86.6667 17.19 86.6667 15V5C86.6667 2.26 84.4067 0 81.6667 0H5ZM5 3.33333H81.6667C82.62 3.33333 83.3333 4.04667 83.3333 5V10H3.33333V5C3.33333 4.04667 4.04667 3.33333 5 3.33333Z" fill="#C79B77"/>
</svg>
