<svg width="34" height="34" viewBox="0 0 34 34" fill="none" xmlns="http://www.w3.org/2000/svg">
<path d="M23 13H9C8.73478 13 8.48043 13.1054 8.29289 13.2929C8.10536 13.4804 8 13.7348 8 14V27C8 27.2652 8.10536 27.5196 8.29289 27.7071C8.48043 27.8946 8.73478 28 9 28H23C23.2652 28 23.5196 27.8946 23.7071 27.7071C23.8946 27.5196 24 27.2652 24 27V14C24 13.7348 23.8946 13.4804 23.7071 13.2929C23.5196 13.1054 23.2652 13 23 13Z" stroke="#454850" stroke-width="2" stroke-linecap="round" stroke-linejoin="round"/>
<path d="M12.5 15V11.5C12.5 11.0404 12.5905 10.5852 12.7664 10.1606C12.9423 9.73597 13.2001 9.35013 13.5251 9.02513C13.8501 8.70012 14.236 8.44231 14.6606 8.26642C15.0852 8.09053 15.5404 8 16 8C16.4596 8 16.9148 8.09053 17.3394 8.26642C17.764 8.44231 18.1499 8.70012 18.4749 9.02513C18.7999 9.35013 19.0577 9.73597 19.2336 10.1606C19.4095 10.5852 19.5 11.0404 19.5 11.5V15" stroke="#454850" stroke-width="2" stroke-linecap="round" stroke-linejoin="round"/>
<path d="M16.5 16C16.5 15.7239 16.2761 15.5 16 15.5C15.7239 15.5 15.5 15.7239 15.5 16L16.5 16ZM15.6464 25.3536C15.8417 25.5488 16.1583 25.5488 16.3536 25.3536L19.5355 22.1716C19.7308 21.9763 19.7308 21.6597 19.5355 21.4645C19.3403 21.2692 19.0237 21.2692 18.8284 21.4645L16 24.2929L13.1716 21.4645C12.9763 21.2692 12.6597 21.2692 12.4645 21.4645C12.2692 21.6597 12.2692 21.9763 12.4645 22.1716L15.6464 25.3536ZM15.5 16L15.5 25L16.5 25L16.5 16L15.5 16Z" fill="#454850"/>
</svg>
