<svg width="26" height="26" viewBox="0 0 26 26" fill="none" xmlns="http://www.w3.org/2000/svg">
<path d="M13.3022 1.8086C13.1082 1.73085 12.8918 1.73085 12.6978 1.8086L2.99975 5.68748L13 9.6866L23.0002 5.68748L13.3022 1.8086ZM24.375 6.88835L13.8125 11.1134V23.9866L24.375 19.7616V6.88998V6.88835ZM12.1875 23.9882V11.1117L1.625 6.88835V19.7632L12.1875 23.9882ZM12.0949 0.298977C12.6759 0.0666008 13.3241 0.0666008 13.9051 0.298977L25.4897 4.93348C25.6404 4.99384 25.7695 5.09791 25.8604 5.2323C25.9513 5.36668 26 5.52521 26 5.68748V19.7632C25.9998 20.0879 25.9023 20.4051 25.7201 20.6739C25.5379 20.9427 25.2794 21.1508 24.9779 21.2712L13.3022 25.9415C13.1082 26.0192 12.8918 26.0192 12.6978 25.9415L1.02375 21.2712C0.721908 21.151 0.463031 20.9431 0.280543 20.6743C0.0980553 20.4055 0.000335285 20.0881 0 19.7632L0 5.68748C3.77649e-05 5.52521 0.0486586 5.36668 0.139599 5.2323C0.230539 5.09791 0.359633 4.99384 0.51025 4.93348L12.0949 0.298977Z" fill="#454850" fill-opacity="0.5"/>
</svg>
