<svg width="24" height="24" viewBox="0 0 24 24" fill="none" xmlns="http://www.w3.org/2000/svg">
<path d="M22 3H20V2C19.9995 1.46973 19.7886 0.961329 19.4136 0.586371C19.0387 0.211413 18.5303 0.000529477 18 0H6C5.46973 0.000529477 4.96133 0.211413 4.58637 0.586371C4.21141 0.961329 4.00053 1.46973 4 2V3H2C1.46973 3.00053 0.961329 3.21141 0.586371 3.58637C0.211413 3.96133 0.000529477 4.46973 0 5V8C0.0013231 9.06046 0.423175 10.0771 1.17303 10.827C1.92289 11.5768 2.93954 11.9987 4 12H4.322C4.73871 13.5307 5.5921 14.907 6.77798 15.9607C7.96386 17.0145 9.43091 17.7002 11 17.934V22H6V24H18V22H13V17.931C14.5895 17.7345 16.0828 17.0635 17.2851 16.0055C18.4875 14.9474 19.343 13.5516 19.74 12H20C21.0605 11.9987 22.0771 11.5768 22.827 10.827C23.5768 10.0771 23.9987 9.06046 24 8V5C23.9995 4.46973 23.7886 3.96133 23.4136 3.58637C23.0387 3.21141 22.5303 3.00053 22 3V3ZM4 10C3.46973 9.99947 2.96133 9.78859 2.58637 9.41363C2.21141 9.03867 2.00053 8.53027 2 8V5H4V10ZM18 10C18 10.8036 17.8386 11.599 17.5253 12.339C17.212 13.079 16.7533 13.7485 16.1763 14.3078C15.5994 14.8672 14.9159 15.3049 14.1666 15.5951C13.4172 15.8852 12.6172 16.0219 11.814 15.997C10.2218 15.8979 8.72905 15.1889 7.64621 14.0174C6.56337 12.8459 5.97376 11.3021 6 9.707V2H18V10ZM22 8C21.9995 8.53027 21.7886 9.03867 21.4136 9.41363C21.0387 9.78859 20.5303 9.99947 20 10V5H22V8Z" fill="#454850"/>
</svg>
