<svg width="37" height="37" viewBox="0 0 37 37" fill="none" xmlns="http://www.w3.org/2000/svg">
<path d="M16.8798 2.10773C17.4398 0.630756 19.5589 0.630756 20.1206 2.10773L23.743 12.1421C23.9967 12.8071 24.6424 13.2498 25.3634 13.2498H34.2653C35.9102 13.2498 36.6277 15.2973 35.3345 16.3L28.9997 21.9997C28.716 22.2178 28.5086 22.5203 28.4074 22.8636C28.3062 23.2069 28.3163 23.5734 28.4363 23.9107L30.7497 33.7158C31.3131 35.2907 29.4897 36.6435 28.1108 35.674L19.5064 30.2141C19.2118 30.007 18.8604 29.8958 18.5002 29.8958C18.1401 29.8958 17.7887 30.007 17.494 30.2141L8.88964 35.674C7.51245 36.6435 5.68728 35.289 6.25076 33.7158L8.56415 23.9107C8.68416 23.5734 8.69427 23.2069 8.59304 22.8636C8.49181 22.5203 8.28444 22.2178 8.00068 21.9997L1.66596 16.3C0.371017 15.2973 1.09198 13.2498 2.73341 13.2498H11.6353C11.9858 13.251 12.3284 13.1457 12.6177 12.9479C12.9071 12.7501 13.1295 12.4691 13.2557 12.1421L16.878 2.10773H16.8798Z" stroke="#DBC09E" stroke-width="0.679049" stroke-linecap="round" stroke-linejoin="round"/>
</svg>
