<svg width="26" height="26" viewBox="0 0 26 26" fill="none" xmlns="http://www.w3.org/2000/svg">
<path d="M11.7964 0.822887C12.2124 -0.274296 13.7866 -0.274296 14.2039 0.822887L16.8948 8.27697C17.0833 8.77096 17.563 9.09986 18.0985 9.09986H24.7113C25.9333 9.09986 26.4663 10.6208 25.5056 11.3657L20.7998 15.5998C20.589 15.7618 20.435 15.9865 20.3598 16.2415C20.2846 16.4965 20.2921 16.7688 20.3812 17.0193L22.0998 24.3031C22.5183 25.4731 21.1638 26.478 20.1394 25.7578L13.7476 21.7019C13.5287 21.548 13.2677 21.4655 13.0002 21.4655C12.7326 21.4655 12.4716 21.548 12.2527 21.7019L5.86087 25.7578C4.83782 26.478 3.48198 25.4718 3.90056 24.3031L5.61909 17.0193C5.70823 16.7688 5.71575 16.4965 5.64055 16.2415C5.56535 15.9865 5.4113 15.7618 5.2005 15.5998L0.494712 11.3657C-0.467245 10.6208 0.0683312 9.09986 1.28768 9.09986H7.90048C8.16085 9.10072 8.41535 9.02251 8.63029 8.87557C8.84524 8.72863 9.01051 8.51989 9.10423 8.27697L11.7951 0.822887H11.7964Z" fill="#DBC09E"/>
</svg>
