<svg width="65" height="39" viewBox="0 0 65 39" fill="none" xmlns="http://www.w3.org/2000/svg">
<path d="M64.9952 19.5C64.9952 30.2 56.2958 39 45.4966 39C34.7974 39 25.998 30.2 25.998 19.5C25.998 8.8 34.6974 0 45.3966 0C56.2958 0 64.9952 8.8 64.9952 19.5Z" fill="#DBC09E"/>
<path d="M38.8972 19.6C38.8972 18.2 38.6972 16.8 38.4972 15.5H26.4981C26.5981 14.8 26.798 14.2 26.998 13.4H37.6973C37.4973 12.7 37.1973 12 36.8973 11.3H27.798C28.098 10.6 28.4979 10 28.8979 9.2H35.7974C35.3974 8.5 34.8975 7.8 34.2975 7.1H30.4978C31.0977 6.4 31.6977 5.8 32.4976 5.1C29.0979 1.9 24.4982 0 19.3986 0C8.79936 0.3 0 8.8 0 19.5C0 30.2 8.69937 39 19.4986 39C24.5982 39 29.0979 37 32.5976 33.9C33.2976 33.3 33.8975 32.6 34.5975 31.8H30.5978C30.0978 31.2 29.5978 30.5 29.1979 29.8H35.9974C36.3974 29.2 36.7973 28.5 37.0973 27.7H27.998C27.698 27.1 27.398 26.4 27.198 25.6H37.8972C38.4972 23.8 38.8972 21.8 38.8972 19.6Z" fill="#C79B77"/>
<path d="M26.398 24.5004L26.698 22.7004C26.598 22.7004 26.398 22.8004 26.198 22.8004C25.498 22.8004 25.398 22.4004 25.498 22.2004L26.098 18.6004H27.1979L27.4979 16.6004H26.498L26.698 15.4004H24.5981C24.5981 15.4004 23.3982 22.2004 23.3982 23.0004C23.3982 24.2004 24.0981 24.8004 25.0981 24.8004C25.698 24.8004 26.198 24.6004 26.398 24.5004Z" fill="#FAF6F0"/>
<path d="M27.0981 21.1996C27.0981 24.0996 29.098 24.7996 30.6979 24.7996C32.1978 24.7996 32.8977 24.4996 32.8977 24.4996L33.2977 22.4996C33.2977 22.4996 32.1978 22.9996 31.0979 22.9996C28.798 22.9996 29.198 21.2996 29.198 21.2996H33.3977C33.3977 21.2996 33.6977 19.9996 33.6977 19.3996C33.6977 18.0996 32.9977 16.3996 30.6979 16.3996C28.698 16.2996 27.0981 18.5996 27.0981 21.1996ZM30.6979 18.1996C31.7978 18.1996 31.5978 19.4996 31.5978 19.5996H29.298C29.398 19.4996 29.598 18.1996 30.6979 18.1996Z" fill="#FAF6F0"/>
<path d="M43.7969 24.5004L44.1969 22.2004C44.1969 22.2004 43.197 22.7004 42.397 22.7004C40.9972 22.7004 40.2972 21.6004 40.2972 20.3004C40.2972 17.8004 41.4971 16.5004 42.997 16.5004C43.9969 16.5004 44.8968 17.1004 44.8968 17.1004L45.1968 14.9004C45.1968 14.9004 43.9969 14.4004 42.797 14.4004C40.3972 14.4004 38.0974 16.5004 38.0974 20.4004C38.0974 23.0004 39.2973 24.7004 41.7971 24.7004C42.697 24.8004 43.7969 24.5004 43.7969 24.5004Z" fill="#FAF6F0"/>
<path d="M15.0989 16.2998C13.699 16.2998 12.5991 16.6998 12.5991 16.6998L12.2991 18.4998C12.2991 18.4998 13.1991 18.0998 14.599 18.0998C15.2989 18.0998 15.8989 18.1998 15.8989 18.7998C15.8989 19.1998 15.7989 19.2998 15.7989 19.2998H14.8989C13.0991 19.2998 11.1992 19.9998 11.1992 22.3998C11.1992 24.2998 12.3991 24.6998 13.1991 24.6998C14.599 24.6998 15.2989 23.7998 15.3989 23.7998L15.2989 24.5998H16.9988L17.7987 18.8998C17.7987 16.3998 15.7989 16.2998 15.0989 16.2998ZM15.4989 20.8998C15.4989 21.1998 15.2989 22.8998 14.099 22.8998C13.4991 22.8998 13.2991 22.3998 13.2991 22.0998C13.2991 21.5998 13.599 20.8998 15.1989 20.8998C15.3989 20.8998 15.4989 20.8998 15.4989 20.8998Z" fill="#FAF6F0"/>
<path d="M19.7985 24.7002C20.2985 24.7002 22.8983 24.8002 22.8983 22.0002C22.8983 19.4002 20.3985 19.9002 20.3985 18.9002C20.3985 18.4002 20.7985 18.2002 21.4984 18.2002C21.7984 18.2002 22.8983 18.3002 22.8983 18.3002L23.1983 16.4002C23.1983 16.4002 22.4983 16.2002 21.1984 16.2002C19.6985 16.2002 18.0986 16.8002 18.0986 18.9002C18.0986 21.3002 20.6985 21.1002 20.6985 22.0002C20.6985 22.6002 19.9985 22.7002 19.4985 22.7002C18.5986 22.7002 17.5987 22.4002 17.5987 22.4002L17.2987 24.3002C17.4987 24.5002 18.0986 24.7002 19.7985 24.7002Z" fill="#FAF6F0"/>
<path d="M60.9956 14.7002L60.5957 17.5002C60.5957 17.5002 59.7957 16.5002 58.5958 16.5002C56.696 16.5002 55.0961 18.8002 55.0961 21.5002C55.0961 23.2002 55.896 24.9002 57.6959 24.9002C58.8958 24.9002 59.6957 24.1002 59.6957 24.1002L59.5957 24.8002H61.6956L63.1955 14.9002L60.9956 14.7002ZM59.9957 20.1002C59.9957 21.2002 59.4957 22.7002 58.2958 22.7002C57.5959 22.7002 57.1959 22.1002 57.1959 21.0002C57.1959 19.3002 57.8959 18.3002 58.8958 18.3002C59.5957 18.4002 59.9957 18.9002 59.9957 20.1002Z" fill="#FAF6F0"/>
<path d="M3.79978 24.6002L4.99969 17.2002L5.19968 24.6002H6.59958L9.29938 17.2002L8.19946 24.6002H10.3993L12.0992 14.7002H8.69942L6.59958 20.8002L6.49958 14.7002H3.4998L1.79993 24.6002H3.79978Z" fill="#FAF6F0"/>
<path d="M35.7974 24.6C36.3973 21.2 36.4973 18.4 37.9972 18.9C38.1972 17.6 38.4972 17 38.6972 16.5H38.2972C37.3973 16.5 36.5973 17.7 36.5973 17.7L36.7973 16.6H34.7975L33.4976 24.6H35.7974Z" fill="#FAF6F0"/>
<path d="M48.5964 16.2998C47.1965 16.2998 46.0966 16.6998 46.0966 16.6998L45.7966 18.4998C45.7966 18.4998 46.6965 18.0998 48.0964 18.0998C48.7964 18.0998 49.3963 18.1998 49.3963 18.7998C49.3963 19.1998 49.2963 19.2998 49.2963 19.2998H48.3964C46.5965 19.2998 44.6967 19.9998 44.6967 22.3998C44.6967 24.2998 45.8966 24.6998 46.6965 24.6998C48.0964 24.6998 48.7964 23.7998 48.8963 23.7998L48.7964 24.5998H50.6962L51.4962 18.8998C51.4962 16.3998 49.2963 16.2998 48.5964 16.2998ZM49.0963 20.8998C49.0963 21.1998 48.8963 22.8998 47.6964 22.8998C47.0965 22.8998 46.8965 22.3998 46.8965 22.0998C46.8965 21.5998 47.1965 20.8998 48.7964 20.8998C48.9963 20.8998 48.9963 20.8998 49.0963 20.8998Z" fill="#FAF6F0"/>
<path d="M53.0962 24.6C53.6962 21.2 53.7962 18.4 55.2961 18.9C55.496 17.6 55.796 17 55.996 16.5H55.596C54.6961 16.5 53.8962 17.7 53.8962 17.7L54.0961 16.6H52.0963L50.7964 24.6H53.0962Z" fill="#FAF6F0"/>
</svg>
