<svg width="69" height="21" viewBox="0 0 69 21" fill="none" xmlns="http://www.w3.org/2000/svg">
<path d="M63.8474 0.299805H59.5477C58.2478 0.299805 57.2478 0.699805 56.6479 1.9998L48.4485 20.6998H54.2481C54.2481 20.6998 55.248 18.1998 55.448 17.5998C56.0479 17.5998 61.7475 17.5998 62.5475 17.5998C62.7474 18.2998 63.2474 20.5998 63.2474 20.5998H68.447L63.8474 0.299805ZM57.0479 13.3998C57.5478 12.1998 59.2477 7.6998 59.2477 7.6998C59.2477 7.7998 59.7477 6.4998 59.9476 5.7998L60.3476 7.5998C60.3476 7.5998 61.4475 12.4998 61.6475 13.4998H57.0479V13.3998Z" fill="#DBC09E"/>
<path d="M48.8484 14C48.8484 18.2 45.0487 21 39.1491 21C36.6493 21 34.2495 20.5 32.9496 19.9L33.7495 15.3L34.4495 15.6C36.2493 16.4 37.4493 16.7 39.6491 16.7C41.249 16.7 42.9489 16.1 42.9489 14.7C42.9489 13.8 42.2489 13.2 40.0491 12.2C37.9492 11.2 35.1494 9.6 35.1494 6.7C35.1494 2.7 39.0491 0 44.5487 0C46.6486 0 48.4485 0.4 49.5484 0.9L48.7484 5.3L48.3485 4.9C47.3485 4.5 46.0486 4.1 44.1488 4.1C42.0489 4.2 41.049 5.1 41.049 5.9C41.049 6.8 42.2489 7.5 44.1488 8.4C47.3485 9.9 48.8484 11.6 48.8484 14Z" fill="#DBC09E"/>
<path d="M0.052124 0.499609L0.152117 0.0996094H8.75149C9.9514 0.0996094 10.8513 0.499609 11.1513 1.79961L13.0512 10.7996C11.1513 5.99961 6.75164 2.09961 0.052124 0.499609Z" fill="#C79B77"/>
<path d="M25.1502 0.300195L16.4508 20.6002H10.5513L5.55164 3.6002C9.15137 5.9002 12.1512 9.5002 13.2511 12.0002L13.851 14.1002L19.2506 0.200195H25.1502V0.300195Z" fill="#DBC09E"/>
<path d="M27.4499 0.200195H32.9495L29.4498 20.6002H23.9502L27.4499 0.200195Z" fill="#DBC09E"/>
</svg>
