<svg width="54" height="16" viewBox="0 0 54 16" fill="none" xmlns="http://www.w3.org/2000/svg">
<path d="M48.5004 0H38.2012C38.8011 3.4 42.1009 6.60001 45.7006 6.60001H53.9C54 6.30001 54 5.8 54 5.5C54 2.5 51.5002 0 48.5004 0Z" fill="#C79B77"/>
<path d="M39.1012 7.2002V15.5002H44.1009V11.1002H48.5006C50.9004 11.1002 53.0003 9.4002 53.7002 7.2002H39.1012Z" fill="#DBC09E"/>
<path d="M21.5024 0V15.4H25.9021C25.9021 15.4 27.002 15.4 27.602 14.3C30.6018 8.4 31.5017 6.60001 31.5017 6.60001H32.1017V15.4H37.1013V0H32.7016C32.7016 0 31.6017 0.100006 31.0017 1.10001C28.5019 6.20001 27.102 8.8 27.102 8.8H26.5021V0H21.5024Z" fill="#DBC09E"/>
<path d="M0.503906 15.4996V0.0996094H5.50354C5.50354 0.0996094 6.90345 0.0996063 7.70339 2.29961C9.70325 8.09961 9.90325 8.89961 9.90325 8.89961C9.90325 8.89961 10.3032 7.49961 12.1031 2.29961C12.903 0.0996063 14.3029 0.0996094 14.3029 0.0996094H19.3026V15.4996H14.3029V7.19962H13.703L10.9032 15.4996H8.70332L5.90354 7.19962H5.30358V15.4996H0.503906Z" fill="#DBC09E"/>
</svg>
